# xmcd
#
# Track frame offsets:
#  150
#  11582
#  26055
#  36070
#  49927
#  63347
#  84615
#  97950
#  111105
#  123060
#  134027
#  148937
#  159950
#  172887
#  186330
#  198930
#  220587
#
# Disc length: 3067 seconds
#
# Revision: 1
# Processed by: cddbd v1.5.1PL0 Copyright (c) Steve Scherf et al.
# Submitted via: Collectorz.com_Music_Collector 6.9
#
DISCID=e70bf911
DTITLE=Tennessee Ernie Ford - Masters 1949 - 1976 [CD 2 Of 3)
DYEAR=1900
DGENRE=Country
TTITLE0=River of No Return
TTITLE1=Cry of the Wild Goose
TTITLE2=The Rovin Gambler
TTITLE3=Mule Train
TTITLE4=Work Song
TTITLE5=Rainy Night in Georgia
TTITLE6=Printer's Alley Stars
TTITLE7=I'm a Bad Man
TTITLE8=Smokey Mountain boogie
TTITLE9=Tennessee Boarder #1
TTITLE10=Put Your Arms Around Me
TTITLE11=Tenessee Local
TTITLE12=Blue Canadian Rockies
TTITLE13=Streamlined Cannonball
TTITLE14=Dark as a Dungeon
TTITLE15=Sixteen Tons
TTITLE16=Tennessee Waltz
EXTD=
EXTT0=
EXTT1=
EXTT2=
EXTT3=
EXTT4=
EXTT5=
EXTT6=
EXTT7=
EXTT8=
EXTT9=
EXTT10=
EXTT11=
EXTT12=
EXTT13=
EXTT14=
EXTT15=
EXTT16=
PLAYORDER=
